<mxfile host="65bd71144e">
    <diagram id="KUzoZ_WBEfeIF54OlFjl" name="Page-1">
        <mxGraphModel dx="1289" dy="659" grid="1" gridSize="10" guides="1" tooltips="1" connect="1" arrows="1" fold="1" page="1" pageScale="1" pageWidth="827" pageHeight="1169" math="0" shadow="0">
            <root>
                <mxCell id="0"/>
                <mxCell id="1" parent="0"/>
                <mxCell id="2" value="&lt;b&gt;Procedural&lt;/b&gt;&lt;div&gt;&lt;b&gt;Request&lt;/b&gt;&lt;/div&gt;&lt;div&gt;&lt;b&gt;Information&lt;/b&gt;&lt;/div&gt;&lt;div&gt;&lt;b&gt;Activity&lt;/b&gt;&lt;/div&gt;" style="ellipse;whiteSpace=wrap;html=1;rounded=0;shadow=0;glass=0;comic=0;strokeColor=#000000;strokeWidth=2;fillColor=#67A9CF;gradientColor=none;fontSize=14;fontColor=#000000;align=center;" parent="1" vertex="1">
                    <mxGeometry x="80" y="80" width="120" height="120" as="geometry"/>
                </mxCell>
                <mxCell id="5" value="&lt;b&gt;Parliamentary&lt;/b&gt;&lt;div&gt;&lt;b&gt;Affair&lt;/b&gt;&lt;/div&gt;&lt;div&gt;&lt;b&gt;Identifier&lt;/b&gt;&lt;/div&gt;&lt;div&gt;&lt;b&gt;Entity&lt;/b&gt;&lt;/div&gt;" style="ellipse;whiteSpace=wrap;html=1;rounded=0;shadow=0;glass=0;comic=0;strokeColor=#000000;strokeWidth=2;fillColor=#fddbc7;gradientColor=none;fontSize=14;fontColor=#000000;align=center;" parent="1" vertex="1">
                    <mxGeometry x="334" y="80" width="120" height="120" as="geometry"/>
                </mxCell>
                <mxCell id="6" value="&lt;span style=&quot;background-color: rgb(209, 229, 240);&quot;&gt;&lt;font&gt;prov:used 1...1&lt;/font&gt;&lt;/span&gt;" style="endArrow=block;html=1;strokeColor=#000000;fontSize=14;fontColor=#000000;endFill=1;exitX=1;exitY=0.5;exitDx=0;exitDy=0;entryX=0;entryY=0.5;entryDx=0;entryDy=0;edgeStyle=orthogonalEdgeStyle;rounded=0;curved=0;" parent="1" source="2" target="5" edge="1">
                    <mxGeometry width="50" height="50" relative="1" as="geometry">
                        <mxPoint x="310" y="510" as="sourcePoint"/>
                        <mxPoint x="450" y="510" as="targetPoint"/>
                        <mxPoint as="offset"/>
                    </mxGeometry>
                </mxCell>
                <mxCell id="10" value="&lt;b&gt;Procedural&lt;/b&gt;&lt;div&gt;&lt;b&gt;Request&lt;/b&gt;&lt;/div&gt;&lt;div&gt;&lt;b&gt;Entity&lt;/b&gt;&lt;/div&gt;" style="ellipse;whiteSpace=wrap;html=1;rounded=0;shadow=0;glass=0;comic=0;strokeColor=#000000;strokeWidth=2;fillColor=#fddbc7;gradientColor=none;fontSize=14;fontColor=#000000;align=center;" parent="1" vertex="1">
                    <mxGeometry x="280" y="240" width="120" height="120" as="geometry"/>
                </mxCell>
                <mxCell id="11" value="&lt;b&gt;Procedural&lt;/b&gt;&lt;div&gt;&lt;b&gt;Request&lt;/b&gt;&lt;/div&gt;&lt;div&gt;&lt;b style=&quot;color: rgb(63, 63, 63); background-color: transparent;&quot;&gt;Information&lt;/b&gt;&lt;/div&gt;&lt;div&gt;&lt;b style=&quot;color: rgb(63, 63, 63); background-color: transparent;&quot;&gt;Entity&lt;/b&gt;&lt;/div&gt;" style="ellipse;whiteSpace=wrap;html=1;rounded=0;shadow=0;glass=0;comic=0;strokeColor=#000000;strokeWidth=2;fillColor=#fddbc7;gradientColor=none;fontSize=14;fontColor=#000000;align=center;" parent="1" vertex="1">
                    <mxGeometry x="280" y="400" width="120" height="120" as="geometry"/>
                </mxCell>
                <mxCell id="13" value="&lt;b&gt;prov:&lt;br&gt;Association&lt;/b&gt;" style="ellipse;whiteSpace=wrap;html=1;rounded=0;shadow=0;glass=0;comic=0;strokeColor=#000000;strokeWidth=2;fillColor=#D1E5F0;gradientColor=none;fontSize=14;fontColor=#000000;align=center;" parent="1" vertex="1">
                    <mxGeometry x="200" y="600" width="120" height="120" as="geometry"/>
                </mxCell>
                <mxCell id="14" value="&lt;b&gt;foaf:Agent&lt;/b&gt;" style="ellipse;whiteSpace=wrap;html=1;rounded=0;shadow=0;glass=0;comic=0;strokeColor=#000000;strokeWidth=2;fillColor=#E6FFCC;gradientColor=none;fontSize=14;fontColor=#000000;align=center;" parent="1" vertex="1">
                    <mxGeometry x="520" y="520" width="120" height="120" as="geometry"/>
                </mxCell>
                <mxCell id="15" value="&lt;b&gt;Procedural&lt;/b&gt;&lt;div&gt;&lt;b&gt;Request&lt;/b&gt;&lt;/div&gt;&lt;div&gt;&lt;b&gt;Agent&lt;/b&gt;&lt;/div&gt;&lt;div&gt;&lt;b&gt;Role&lt;/b&gt;&lt;/div&gt;" style="ellipse;whiteSpace=wrap;html=1;rounded=0;shadow=0;glass=0;comic=0;strokeColor=#000000;strokeWidth=2;fillColor=#E6FFCC;gradientColor=none;fontSize=14;fontColor=#000000;align=center;" parent="1" vertex="1">
                    <mxGeometry x="520" y="680" width="120" height="120" as="geometry"/>
                </mxCell>
                <mxCell id="17" value="&lt;span style=&quot;background-color: rgb(209, 229, 240);&quot;&gt;&lt;font&gt;prov:used 1...1&lt;/font&gt;&lt;/span&gt;" style="endArrow=block;html=1;strokeColor=#000000;fontSize=14;fontColor=#000000;endFill=1;exitX=0.5;exitY=1;exitDx=0;exitDy=0;entryX=0;entryY=0.5;entryDx=0;entryDy=0;edgeStyle=orthogonalEdgeStyle;rounded=0;curved=0;" parent="1" source="2" target="10" edge="1">
                    <mxGeometry x="0.4167" width="50" height="50" relative="1" as="geometry">
                        <mxPoint x="150" y="210" as="sourcePoint"/>
                        <mxPoint x="490" y="270" as="targetPoint"/>
                        <mxPoint as="offset"/>
                    </mxGeometry>
                </mxCell>
                <mxCell id="18" value="&lt;span style=&quot;background-color: rgb(209, 229, 240);&quot;&gt;&lt;font&gt;prov:used 1...1&lt;/font&gt;&lt;/span&gt;" style="endArrow=block;html=1;strokeColor=#000000;fontSize=14;fontColor=#000000;endFill=1;exitX=0.5;exitY=1;exitDx=0;exitDy=0;entryX=0;entryY=0.5;entryDx=0;entryDy=0;edgeStyle=orthogonalEdgeStyle;rounded=0;curved=0;" parent="1" source="2" target="11" edge="1">
                    <mxGeometry x="0.65" width="50" height="50" relative="1" as="geometry">
                        <mxPoint x="160" y="220" as="sourcePoint"/>
                        <mxPoint x="500" y="280" as="targetPoint"/>
                        <mxPoint as="offset"/>
                    </mxGeometry>
                </mxCell>
                <mxCell id="19" value="&lt;span style=&quot;background-color: rgb(209, 229, 240);&quot;&gt;&lt;font&gt;prov:qualifiedAssociation 1...*&lt;/font&gt;&lt;/span&gt;" style="endArrow=block;html=1;strokeColor=#000000;fontSize=14;fontColor=#000000;endFill=1;exitX=0.5;exitY=1;exitDx=0;exitDy=0;entryX=0;entryY=0.5;entryDx=0;entryDy=0;edgeStyle=orthogonalEdgeStyle;rounded=0;curved=0;" parent="1" source="2" target="13" edge="1">
                    <mxGeometry x="0.4231" width="50" height="50" relative="1" as="geometry">
                        <mxPoint x="150" y="210" as="sourcePoint"/>
                        <mxPoint x="490" y="590" as="targetPoint"/>
                        <mxPoint as="offset"/>
                    </mxGeometry>
                </mxCell>
                <mxCell id="20" value="&lt;span style=&quot;background-color: rgb(209, 229, 240);&quot;&gt;&lt;font&gt;prov:agent 1...1&lt;/font&gt;&lt;/span&gt;" style="endArrow=block;html=1;strokeColor=#000000;fontSize=14;fontColor=#000000;endFill=1;exitX=1;exitY=0.5;exitDx=0;exitDy=0;entryX=0;entryY=0.5;entryDx=0;entryDy=0;edgeStyle=orthogonalEdgeStyle;rounded=0;curved=0;" parent="1" source="13" target="14" edge="1">
                    <mxGeometry x="0.3571" width="50" height="50" relative="1" as="geometry">
                        <mxPoint x="160" y="60" as="sourcePoint"/>
                        <mxPoint x="500" y="440" as="targetPoint"/>
                        <mxPoint as="offset"/>
                        <Array as="points">
                            <mxPoint x="340" y="660"/>
                            <mxPoint x="340" y="580"/>
                        </Array>
                    </mxGeometry>
                </mxCell>
                <mxCell id="21" value="&lt;span style=&quot;background-color: rgb(209, 229, 240);&quot;&gt;&lt;font&gt;prov:hadRole 1...1&lt;/font&gt;&lt;/span&gt;" style="endArrow=block;html=1;strokeColor=#000000;fontSize=14;fontColor=#000000;endFill=1;exitX=1;exitY=0.5;exitDx=0;exitDy=0;entryX=0;entryY=0.5;entryDx=0;entryDy=0;edgeStyle=orthogonalEdgeStyle;rounded=0;curved=0;" parent="1" source="13" target="15" edge="1">
                    <mxGeometry x="0.3571" width="50" height="50" relative="1" as="geometry">
                        <mxPoint x="330" y="670" as="sourcePoint"/>
                        <mxPoint x="490" y="590" as="targetPoint"/>
                        <mxPoint as="offset"/>
                        <Array as="points">
                            <mxPoint x="340" y="660"/>
                            <mxPoint x="340" y="740"/>
                        </Array>
                    </mxGeometry>
                </mxCell>
                <mxCell id="22" value="proceduralRequestTitle 1...1" style="endArrow=block;html=1;strokeColor=#000000;fontSize=14;fontColor=#000000;endFill=1;exitX=1;exitY=0.5;exitDx=0;exitDy=0;entryX=0;entryY=0.5;entryDx=0;entryDy=0;" parent="1" source="10" target="23" edge="1">
                    <mxGeometry x="0.0435" width="50" height="50" relative="1" as="geometry">
                        <mxPoint x="490" y="300" as="sourcePoint"/>
                        <mxPoint x="690" y="300" as="targetPoint"/>
                        <mxPoint as="offset"/>
                    </mxGeometry>
                </mxCell>
                <mxCell id="23" value="rdf:langString" style="whiteSpace=wrap;html=1;rounded=0;shadow=0;glass=0;comic=0;strokeColor=#000000;strokeWidth=2;fillColor=#FFFFFF;gradientColor=none;fontSize=14;fontColor=#000000;align=center;" parent="1" vertex="1">
                    <mxGeometry x="650" y="290" width="140" height="20" as="geometry"/>
                </mxCell>
                <mxCell id="24" value="proceduralRequestText 1...1" style="endArrow=block;html=1;strokeColor=#000000;fontSize=14;fontColor=#000000;endFill=1;entryX=0;entryY=0.5;entryDx=0;entryDy=0;rounded=0;curved=0;" parent="1" target="25" edge="1">
                    <mxGeometry x="0.1111" width="50" height="50" relative="1" as="geometry">
                        <mxPoint x="420" y="300" as="sourcePoint"/>
                        <mxPoint x="700" y="330" as="targetPoint"/>
                        <Array as="points">
                            <mxPoint x="420" y="340"/>
                        </Array>
                        <mxPoint as="offset"/>
                    </mxGeometry>
                </mxCell>
                <mxCell id="25" value="rdf:langString" style="whiteSpace=wrap;html=1;rounded=0;shadow=0;glass=0;comic=0;strokeColor=#000000;strokeWidth=2;fillColor=#FFFFFF;gradientColor=none;fontSize=14;fontColor=#000000;align=center;" parent="1" vertex="1">
                    <mxGeometry x="650" y="330" width="140" height="20" as="geometry"/>
                </mxCell>
                <mxCell id="26" value="&lt;b&gt;Procedural&lt;/b&gt;&lt;div&gt;&lt;b&gt;Request&lt;/b&gt;&lt;/div&gt;&lt;div&gt;&lt;b&gt;Type&lt;/b&gt;&lt;/div&gt;" style="ellipse;whiteSpace=wrap;html=1;rounded=0;shadow=0;glass=0;comic=0;strokeColor=#000000;strokeWidth=2;fillColor=#E6FFCC;gradientColor=none;fontSize=14;fontColor=#000000;align=center;" parent="1" vertex="1">
                    <mxGeometry x="660" y="150" width="120" height="120" as="geometry"/>
                </mxCell>
                <mxCell id="27" value="&lt;span style=&quot;background-color: rgb(209, 229, 240);&quot;&gt;&lt;font&gt;proceduralRequestType 1...1&lt;/font&gt;&lt;/span&gt;" style="endArrow=block;html=1;strokeColor=#000000;fontSize=14;fontColor=#000000;endFill=1;exitX=1;exitY=0.5;exitDx=0;exitDy=0;entryX=0;entryY=0.5;entryDx=0;entryDy=0;edgeStyle=orthogonalEdgeStyle;rounded=0;curved=0;" parent="1" source="10" target="26" edge="1">
                    <mxGeometry x="0.2571" width="50" height="50" relative="1" as="geometry">
                        <mxPoint x="330" y="670" as="sourcePoint"/>
                        <mxPoint x="510" y="450" as="targetPoint"/>
                        <mxPoint as="offset"/>
                        <Array as="points">
                            <mxPoint x="420" y="300"/>
                            <mxPoint x="420" y="210"/>
                        </Array>
                    </mxGeometry>
                </mxCell>
                <mxCell id="28" value="proceduralRequestInformation 1...1" style="endArrow=block;html=1;strokeColor=#000000;fontSize=14;fontColor=#000000;endFill=1;entryX=0;entryY=0.5;entryDx=0;entryDy=0;exitX=1;exitY=0.5;exitDx=0;exitDy=0;" parent="1" source="11" target="29" edge="1">
                    <mxGeometry x="-0.04" width="50" height="50" relative="1" as="geometry">
                        <mxPoint x="520" y="400" as="sourcePoint"/>
                        <mxPoint x="690" y="460" as="targetPoint"/>
                        <mxPoint as="offset"/>
                    </mxGeometry>
                </mxCell>
                <mxCell id="29" value="rdf:langString" style="whiteSpace=wrap;html=1;rounded=0;shadow=0;glass=0;comic=0;strokeColor=#000000;strokeWidth=2;fillColor=#FFFFFF;gradientColor=none;fontSize=14;fontColor=#000000;align=center;" parent="1" vertex="1">
                    <mxGeometry x="650" y="450" width="140" height="20" as="geometry"/>
                </mxCell>
            </root>
        </mxGraphModel>
    </diagram>
</mxfile>